# AST/ASF file generated using VICON BodyLanguage
# -----------------------------------------------
:version 1.10
:name VICON
:units
  mass 1.0
  length 0.45
  angle deg
:documentation
   .ast/.asf automatically generated from VICON data using
   VICON BodyBuilder and BodyLanguage model FoxedUp or BRILLIANT.MOD
:root
   order TX TY TZ RX RY RZ
   axis XYZ
   position 0 0 0  
   orientation 0 0 0 
:bonedata
  begin
     id 1 
     name lhipjoint
     direction 0.645422 -0.672597 0.361999 
     length 2.39934 
     axis 0 0 0  XYZ
  end
  begin
     id 2 
     name lfemur
     direction 0.34202 -0.939693 0  
     length 6.58112  
     axis 0 0 20  XYZ
    dof rx ry rz
    limits (-160.0 20.0)
           (-70.0 70.0)
           (-60.0 70.0)
  end
  begin
     id 3 
     name ltibia
     direction 0.34202 -0.939693 0   
     length 7.02673   
     axis 0 0 20   XYZ
    dof rx
    limits (-10.0 170.0)
  end
  begin
     id 4 
     name lfoot
     direction 0.0835106 -0.229444 0.969733   
     length 2.08772   
     axis -90 7.62852e-016 20   XYZ
    dof rx rz
    limits (-45.0 90.0)
           (-70.0 20.0)
  end
  begin
     id 5 
     name ltoes
     direction 1.5358e-011 -4.21925e-011 1   
     length 1.04844   
     axis -90 7.62852e-016 20   XYZ
    dof rx
    limits (-90.0 20.0)
  end
  begin
     id 6 
     name rhipjoint
     direction -0.644959 -0.672941 0.362185   
     length 2.39812  
     axis 0 0 0  XYZ 
  end
  begin
     id 7 
     name rfemur
     direction -0.34202 -0.939693 0   
     length 6.67015   
     axis 0 0 -20   XYZ
    dof rx ry rz
    limits (-160.0 20.0)
           (-70.0 70.0)
           (-70.0 60.0)
  end
  begin
     id 8 
     name rtibia
     direction -0.34202 -0.939693 0   
     length 7.35735   
     axis 0 0 -20   XYZ
    dof rx
    limits (-10.0 170.0)
 end
 begin
     id 9 
     name rfoot
     direction -0.0670769 -0.184292 0.98058   
     length 2.25469  
     axis -90 -7.62852e-016 -20   XYZ
    dof rx rz
    limits (-45.0 90.0)
           (-20.0 70.0)
  end
  begin
     id 10 
     name rtoes
     direction -1.53575e-011 -4.21908e-011 1   
     length 1.13399   
     axis -90 -7.62852e-016 -20   XYZ
    dof rx
    limits (-90.0 20.0)
  end
  begin
     id 11 
     name lowerback
     direction -0.0188328 0.993434 -0.112847   
     length 2.27656   
     axis 0 0 0   XYZ
    dof rx ry rz
    limits (-20.0 45.0)
           (-30.0 30.0)
           (-30.0 30.0)
  end
  begin
     id 12 
     name upperback
     direction 0.00983139 0.998968 -0.04435   
     length 2.28631   
     axis 0 0 0   XYZ
    dof rx ry rz
    limits (-20.0 45.0)
           (-30.0 30.0)
           (-30.0 30.0)
  end
  begin
     id 13 
     name thorax
     direction 0.0177718 0.999807 0.00833073   
     length 2.30999   
     axis 0 0 0   XYZ
    dof rx ry rz
    limits (-20.0 45.0)
           (-30.0 30.0)
           (-30.0 30.0)
  end
  begin
     id 14 
     name lowerneck
     direction -0.0835025 0.993181 0.0813558   
     length 1.39447   
     axis 0 0 0   XYZ
    dof rx ry rz
    limits (-20.0 45.0)
           (-30.0 30.0)
           (-30.0 30.0)
  end
  begin
     id 15 
     name upperneck
     direction 0.210059 0.976535 0.0474817   
     length 1.39882   
     axis 0 0 0   XYZ
    dof rx ry rz
    limits (-20.0 45.0)
           (-30.0 30.0)
           (-30.0 30.0)
  end
  begin
     id 16
     name head
     direction 0.0780891 0.996944 -0.00207154  
     length 1.41828  
     axis 0 0 0   XYZ
    dof rx ry rz
    limits (-20.0 45.0)
           (-30.0 30.0)
           (-30.0 30.0)
  end
  begin
     id 17 
     name lclavicle
     direction 0.982414 0.166355 -0.0847829  
     length 3.57922  
     axis 0 0 0   XYZ
    dof ry rz
    limits (-20.0 10.0)
           (0.0 20.0)
  end
  begin
     id 18 
     name lhumerus
     direction 1 -4.48975e-011 5.47647e-028   
     length 4.76405   
     axis -180 -30 -90   XYZ
    dof rx ry rz
    limits (-60.0 90.0)
           (-90.0 90.0)
           (-90.0 90.0)
  end
  begin
     id 19
     name lradius
     direction 1 -4.48949e-011 -8.32142e-027   
     length 3.13759   
     axis -180 -30 -90   XYZ
    dof rx
    limits (-10.0 170.0)
  end
  begin
     id 20
     name lwrist
     direction 1 -4.48978e-011 -1.32705e-026   
     length 1.56879   
     axis 9.60836e-015 90 90   XYZ
    dof ry
    limits (-180.0 0.0)
 end
  begin
     id 21 
     name lhand
     direction 1 -4.48975e-011 -2.65409e-026   
     length 0.732262   
     axis 1.69354e-014 90 90   XYZ
    dof rx rz
    limits (-90.0 90.0)
           (-45.0 45.0)
  end
  begin
     id 22 
     name lfingers
     direction 1 -4.48923e-011 -5.30819e-026   
     length 0.590368   
     axis 3.38708e-014 90 90   XYZ
    dof rx
    limits (0.0 90.0)
  end
  begin
     id 23
     name lthumb
     direction 0.707107 -6.34914e-011 0.707107   
     length 0.847654   
     axis -90 45 2.85299e-015   XYZ
    dof rx rz
    limits (-45.0 45.0)
           (-45.0 45.0)
  end
  begin
     id 24 
     name rclavicle
     direction -0.963658 0.245183 -0.106063   
     length 3.43472  
     axis 0 0 0   XYZ 
    dof ry rz
    limits (-10.0 20.0)
           (-20.0 0.0)
  end
  begin
     id 25 
     name rhumerus
     direction -1 -4.48963e-011 -1.64784e-027  
     length 5.10161   
     axis -180 30 90   XYZ
    dof rx ry rz
    limits (-90.0 60.0)
           (-90.0 90.0)
           (-90.0 90.0)
  end
  begin
     id 26 
     name rradius
     direction -1 -4.48969e-011 -2.87943e-027   
     length 3.23267   
     axis -180 30 90   XYZ
    dof rx
    limits (-10.0 170.0)
  end
  begin
     id 27 
     name rwrist
     direction -1 -4.48982e-011 -1.32705e-026   
     length 1.61633   
     axis 9.60836e-015 -90 -90   XYZ
    dof ry
    limits (-180.0 0.0)
  end
  begin
     id 28
     name rhand
     direction -1 -4.48963e-011 -2.65409e-026   
     length 0.702   
     axis 1.69354e-014 -90 -90   XYZ
    dof rx rz
    limits (-90.0 90.0)
           (-45.0 45.0)
  end
  begin
     id 29
     name rfingers
     direction -1 -4.48934e-011 -5.30819e-026   
     length 0.565971   
     axis 3.38708e-014 -90 -90   XYZ
    dof rx
    limits (0.0 90.0)
  end
  begin
     id 30
     name rthumb
     direction -0.707107 -6.34908e-011 0.707107   
     length 0.812624   
     axis -90 -45 -2.85299e-015   XYZ
    dof rx rz
    limits (-45.0 45.0)
           (-45.0 45.0)
  end
:hierarchy
  begin
    root lhipjoint rhipjoint lowerback
    lhipjoint lfemur
    lfemur ltibia
    ltibia lfoot
    lfoot ltoes
    rhipjoint rfemur
    rfemur rtibia
    rtibia rfoot
    rfoot rtoes
    lowerback upperback
    upperback thorax
    thorax lowerneck lclavicle rclavicle
    lowerneck upperneck
    upperneck head
    lclavicle lhumerus
    lhumerus lradius
    lradius lwrist
    lwrist lhand lthumb
    lhand lfingers
    rclavicle rhumerus
    rhumerus rradius
    rradius rwrist
    rwrist rhand rthumb
    rhand rfingers
  end

#!OML:ASF \\sashay\E\basketball\basketball\Project 1\Capture day 1\Session 1\Subject.ASF
:FULLY-SPECIFIED
:DEGREES
33
root 32.2318 15.3156 -0.054297 -177.404 -62.2916 174.236
lowerback 3.38164 1.22648 -4.81812
upperback 7.1656 1.34052 -0.228744
thorax 5.43972 0.283622 2.46061
lowerneck -3.08343 -0.410111 -12.0418
upperneck -8.21081 0.205066 15.2512
head -1.87247 -0.0088258 6.68919
rclavicle -1.06847e-015 -2.21148e-015
rhumerus -27.35 -17.773 -85.3683
rradius 25.9985
rwrist 15.288
rhand -15.1686 27.318
rfingers 7.12502
rthumb 11.0021 -2.37369
lclavicle -1.06847e-015 -2.21148e-015
lhumerus -21.1961 10.3447 88.0491
lradius 16.313
lwrist -12.1405
lhand -13.1633 23.654
lfingers 7.12502
lthumb 12.9358 53.2331
rfemur -9.61314 -5.51813 14.0758
rtibia 40.3314
rfoot -22.4193 -20.1474
rtoes -26.0062
lfemur -4.01232 9.91694 -17.7033
ltibia 35.6393
lfoot -25.8592 13.2454
ltoes -6.42128
34
root 32.2048 15.307 -0.0744014 -177.37 -62.0819 174.317
lowerback 3.39421 1.20616 -5.06387
upperback 7.08316 1.31144 -0.106435
thorax 5.34196 0.258886 2.7246
lowerneck -3.26932 -0.264776 -12.1325
upperneck -7.97083 0.401948 15.1566
head -1.80102 0.106907 6.67027
rclavicle 1.88659e-014 1.39895e-014
rhumerus -27.5932 -17.0712 -85.3961
rradius 26.2082
rwrist 15.0193
rhand -15.2771 27.4939
rfingers 7.12502
rthumb 10.8975 -2.20333
lclavicle 1.88659e-014 1.39895e-014
lhumerus -21.2008 10.2071 88.0284
lradius 16.2116
lwrist -12.2443
lhand -13.6039 23.5334
lfingers 7.12502
lthumb 12.511 53.1388
rfemur -9.72817 -5.48337 14.1063
rtibia 40.4914
rfoot -22.5742 -20.1278
rtoes -26.3087
lfemur -3.97768 10.1502 -17.6198
ltibia 35.6863
lfoot -26.1173 13.0166
ltoes -5.7685
35
root 32.1765 15.3002 -0.0931398 -177.336 -61.8488 174.448
lowerback 3.33963 1.22697 -5.1539
upperback 7.05462 1.34315 -0.0796071
thorax 5.33838 0.270759 2.80404
lowerneck -3.3509 -0.248721 -12.1097
upperneck -7.96334 0.427195 15.1333
head -1.78899 0.121536 6.65856
rclavicle 1.28962e-014 -1.00386e-014
rhumerus -27.6194 -16.5731 -85.6179
rradius 26.2706
rwrist 14.4745
rhand -15.3138 26.6927
rfingers 7.12502
rthumb 10.8621 -3.00637
lclavicle 1.28962e-014 -1.00386e-014
lhumerus -21.1143 10.0884 87.8644
lradius 16.1341
lwrist -12.6006
lhand -14.0054 23.3534
lfingers 7.12502
lthumb 12.1239 52.9821
rfemur -9.91417 -5.47284 14.1583
rtibia 40.6715
rfoot -22.7122 -20.042
rtoes -26.567
lfemur -3.98445 10.349 -17.5429
ltibia 35.7268
lfoot -26.2252 12.9588
ltoes -5.30575
36
root 32.1452 15.2919 -0.107615 -177.379 -61.6471 174.597
lowerback 3.29164 1.24346 -5.07505
upperback 7.08043 1.36845 -0.12353
thorax 5.39273 0.286013 2.71537
lowerneck -3.49373 -0.134815 -11.8704
upperneck -8.03964 0.580665 14.8979
head -1.8104 0.198314 6.54156
rclavicle 7.90728e-014 -1.55673e-014
rhumerus -27.6206 -16.2331 -85.9005
rradius 26.3101
rwrist 14.0699
rhand -15.4048 26.1535
rfingers 7.12502
rthumb 10.7744 -3.55021
lclavicle 7.90728e-014 -1.55673e-014
lhumerus -20.8162 10.184 87.6048
lradius 16.2636
lwrist -11.9931
lhand -13.1242 24.5147
lfingers 7.12502
lthumb 12.9735 54.0913
rfemur -10.0152 -5.6163 14.1573
rtibia 40.8553
rfoot -23.1156 -19.5502
rtoes -25.8699
lfemur -3.93864 10.4556 -17.4949
ltibia 35.7826
lfoot -26.3923 13.0094
ltoes -4.81905
37
root 32.1115 15.2804 -0.123215 -177.262 -61.3687 174.513
lowerback 3.40788 1.28155 -5.12836
upperback 6.97613 1.41606 -0.199009
thorax 5.21247 0.317621 2.66415
lowerneck -3.51312 -0.0830754 -11.7161
upperneck -7.80617 0.63243 14.8441
head -1.74671 0.22701 6.49417
rclavicle -1.86345e-014 -4.84227e-015
rhumerus -27.9423 -15.9433 -86.0707
rradius 26.4094
rwrist 13.8588
rhand -15.6686 26.3366
rfingers 7.12502
rthumb 10.5198 -3.38017
lclavicle -1.86345e-014 -4.84227e-015
lhumerus -20.8565 10.2351 87.2657
lradius 15.9672
lwrist -12.5434
lhand -13.1206 24.1526
lfingers 7.12502
lthumb 12.977 53.7291
rfemur -10.0644 -5.67894 14.0246
rtibia 41.0278
rfoot -23.3975 -19.2159
rtoes -25.4667
lfemur -3.82242 10.7382 -17.5426
ltibia 35.8549
lfoot -26.4985 13.0588
ltoes -5.11324
38
root 32.079 15.2687 -0.140633 -177.269 -61.0094 174.577
lowerback 3.31345 1.33335 -5.08563
upperback 7.01764 1.49268 -0.305043
thorax 5.30687 0.356211 2.53242
lowerneck -3.55613 0.0576162 -11.6154
upperneck -7.78652 0.823407 14.9295
head -1.75919 0.317193 6.50347
rclavicle 2.56556e-015 1.61513e-015
rhumerus -28.079 -15.7054 -86.36
rradius 26.5272
rwrist 13.6247
rhand -16.2159 26.498
rfingers 7.12502
rthumb 9.99188 -3.24485
lclavicle 2.56556e-015 1.61513e-015
lhumerus -20.6936 10.0017 86.953
lradius 15.8209
lwrist -12.7632
lhand -13.346 23.866
lfingers 7.12502
lthumb 12.7596 53.4562
rfemur -10.137 -5.52596 14.015
rtibia 41.1947
rfoot -23.4013 -19.2745
rtoes -26.0472
lfemur -3.69787 11.1397 -17.4856
ltibia 35.9411
lfoot -26.5721 13.1459
ltoes -6.1459
39
root 32.0408 15.2592 -0.15751 -177.363 -60.8499 174.827
lowerback 3.25918 1.2949 -5.05271
upperback 6.99242 1.44525 -0.274095
thorax 5.31449 0.33475 2.5468
lowerneck -3.87297 0.262506 -11.8156
upperneck -7.52735 1.12035 15.1051
head -1.67247 0.482338 6.59183
rclavicle 7.56624e-015 -5.76476e-015
rhumerus -28.2931 -15.25 -86.5029
rradius 26.681
rwrist 13.3346
rhand -16.9012 26.3623
rfingers 7.12502
rthumb 9.33066 -3.41125
lclavicle 7.56624e-015 -5.76476e-015
lhumerus -20.6723 10.229 86.7033
lradius 15.844
lwrist -13.0039
lhand -13.5836 23.7628
lfingers 7.12502
lthumb 12.5306 53.3671
rfemur -10.2185 -5.49988 14.1216
rtibia 41.3527
rfoot -23.3169 -19.5354
rtoes -27.137
lfemur -3.66462 11.3195 -17.3644
ltibia 36.0407
lfoot -26.6974 13.279
ltoes -7.04248
40
root 32.0002 15.2464 -0.176608 -177.406 -60.5556 174.993
lowerback 3.315 1.33604 -5.14388
upperback 6.90721 1.49727 -0.227765
thorax 5.18546 0.361619 2.64485
lowerneck -4.15372 0.36103 -11.7739
upperneck -7.23902 1.25344 15.0487
head -1.56096 0.564477 6.56397
rclavicle 4.29499e-014 -1.2275e-014
rhumerus -28.5745 -14.9022 -86.5788
rradius 26.8162
rwrist 13.077
rhand -17.4716 26.049
rfingers 7.12502
rthumb 8.7803 -3.74834
lclavicle 4.29499e-014 -1.2275e-014
lhumerus -20.8519 10.3124 86.524
lradius 16.2188
lwrist -12.5893
lhand -13.6099 23.9875
lfingers 7.12502
lthumb 12.5053 53.5933
rfemur -10.2883 -5.4721 14.1441
rtibia 41.5074
rfoot -23.4195 -19.5843
rtoes -27.7619
lfemur -3.54347 11.6423 -17.2823
ltibia 36.1406
lfoot -26.8524 13.3559
ltoes -7.4674
41
root 31.9635 15.2331 -0.193111 -177.463 -60.1991 175.152
lowerback 3.15362 1.46301 -4.97208
upperback 7.03703 1.67769 -0.396017
thorax 5.40765 0.45307 2.37954
lowerneck -4.14039 0.310911 -11.3542
upperneck -7.44877 1.17584 14.9933
head -1.61082 0.506462 6.47548
rclavicle 2.24378e-014 -4.17448e-015
rhumerus -28.615 -14.9452 -86.9727
rradius 27.0614
rwrist 12.759
rhand -18.0066 26.0845
rfingers 7.12502
rthumb 8.26396 -3.73388
lclavicle 2.24378e-014 -4.17448e-015
lhumerus -20.5133 9.97051 86.2103
lradius 16.2309
lwrist -12.3341
lhand -13.8377 24.0754
lfingers 7.12502
lthumb 12.2856 53.6945
rfemur -10.3666 -5.43511 14.1453
rtibia 41.6492
rfoot -23.7182 -19.358
rtoes -27.6105
lfemur -3.42447 11.916 -17.2158
ltibia 36.2427
lfoot -27.0738 13.3499
ltoes -6.99599
42
root 31.9252 15.2226 -0.208137 -177.461 -59.8358 175.241
lowerback 3.42352 1.55763 -5.14899
upperback 6.8612 1.78631 -0.291067
thorax 5.05225 0.511138 2.58069
lowerneck -4.21191 0.372792 -11.3196
upperneck -7.16412 1.24357 14.855
head -1.52631 0.553207 6.42218
rclavicle -1.38677e-013 3.58806e-014
rhumerus -29.27 -14.3655 -86.9162
rradius 27.5183
rwrist 12.1276
rhand -18.8837 27.1183
rfingers 7.12502
rthumb 7.41745 -2.73167
lclavicle -1.38677e-013 3.58806e-014
lhumerus -20.6284 10.6203 86.0191
lradius 15.9971
lwrist -12.7261
lhand -13.9615 23.8913
lfingers 7.12502
lthumb 12.1662 53.5175
rfemur -10.438 -5.37406 14.1049
rtibia 41.7835
rfoot -23.8512 -19.2299
rtoes -27.9216
lfemur -3.33146 12.0199 -17.2374
ltibia 36.3551
lfoot -27.3486 13.5109
ltoes -6.56173
